<?xml version="1.0" encoding="utf-8" standalone="yes"?>
<!DOCTYPE svg PUBLIC "-//W3C//DTD SVG 1.1//EN" "http://www.w3.org/Graphics/SVG/1.1/DTD/svg11.dtd">
<svg width="854" height="638" viewBox="0 0 854 638" style="fill:none;stroke:none;fill-rule:evenodd;clip-rule:evenodd;stroke-linecap:round;stroke-linejoin:round;stroke-miterlimit:1.5;" version="1.1" xmlns="http://www.w3.org/2000/svg" xmlns:xlink="http://www.w3.org/1999/xlink"><style id="fontImports">@import url("https://fonts.googleapis.com/css2?family=Roboto:wght@400;700&amp;display=block");</style><rect id="" x="0" y="0" width="854" height="638" style="fill: #ffffff;"></rect><g id="items" style="isolation: isolate"><g id="blend" style="mix-blend-mode:normal"><g id="g-root-tf_dju4gfri90jo-fill" data-item-order="-541872" transform="translate(-9, -9)"><g id="tf_dju4gfri90jo-fill" stroke="none" fill="#ffffff"><g><path d="M 10 10L 862 10L 862 646L 10 646Z"></path></g></g></g><g id="g-root-5.line_sy_1uood8vri90xz-fill" data-item-order="-160258" transform="translate(607.616455078125, 327)"></g><g id="g-root-5.line_1_sy_1uood8vri90y0-fill" data-item-order="-160254" transform="translate(614.9993286132812, 351)"></g><g id="g-root-5.line_2_sy_1q8uv4fri91q9-fill" data-item-order="-160250" transform="translate(607.6165161132812, 375)"></g><g id="g-root-5.cu_sy_1q8uv4fri91qa-fill" data-item-order="-160249" transform="translate(518.999755859375, 195)"><g id="5.cu_sy_1q8uv4fri91qa-fill" stroke="none" fill="#fffce6"><g><path d="M 57.965332 322L 45.965332 322L 10 205.113007L 21.965271 166L 10 126.886993L 45.965271 10L 57.965271 10L 105.965271 166L 57.965332 322Z"></path></g></g></g><g id="g-root-4.line_sy_1hdubynri8zd7-fill" data-item-order="-160242" transform="translate(516.233154296875, 303)"></g><g id="g-root-4.line_1_sy_1hdubynri8zd8-fill" data-item-order="-160238" transform="translate(523.615966796875, 327)"></g><g id="g-root-4.line_2_sy_1cy0tu7ri905h-fill" data-item-order="-160234" transform="translate(530.9993286132812, 351)"></g><g id="g-root-4.line_3_sy_1cy0tu7ri905i-fill" data-item-order="-160230" transform="translate(523.6194458007812, 375)"></g><g id="g-root-4.line_4_sy_1cy0tu7ri905j-fill" data-item-order="-160226" transform="translate(516.239013671875, 399)"></g><g id="g-root-4.cu_sy_18i7bprri90xs-fill" data-item-order="-160225" transform="translate(434.999755859375, 195)"><g id="4.cu_sy_18i7bprri90xs-fill" stroke="none" fill="#f5fbe9"><g><path d="M 57.965302 322L 45.965302 322L 10 205.113007L 21.965302 166L 10 126.886993L 45.965302 10L 57.965302 10L 105.965302 166L 57.965302 322Z"></path></g></g></g><g id="g-root-3.line_sy_18i7bprri90xt-fill" data-item-order="-160218" transform="translate(424.8182373046875, 279)"></g><g id="g-root-3.line_1_sy_zmkbgvri91qi-fill" data-item-order="-160214" transform="translate(432.21173095703125, 303)"></g><g id="g-root-3.line_2_sy_zmkbgvri91qj-fill" data-item-order="-160210" transform="translate(439.6053466796875, 327)"></g><g id="g-root-3.line_3_sy_zmkbgvri91qk-fill" data-item-order="-160206" transform="translate(446.9993896484375, 351)"></g><g id="g-root-3.line_4_sy_v7dafjri8zd1-fill" data-item-order="-160202" transform="translate(439.6092529296875, 375)"></g><g id="g-root-3.line_5_sy_v7dafjri8zd2-fill" data-item-order="-160198" transform="translate(432.2191162109375, 399)"></g><g id="g-root-3.line_6_sy_v7dafjri8zd3-fill" data-item-order="-160194" transform="translate(424.8284912109375, 423)"></g><g id="g-root-3.cu_sy_qrjsb3ri905c-fill" data-item-order="-160193" transform="translate(350.9998779296875, 195)"><g id="3.cu_sy_qrjsb3ri905c-fill" stroke="none" fill="#e9fbf3"><g><path d="M 57.965301 322L 45.965301 322L 10 205.113007L 21.965301 166L 10 126.886993L 45.965301 10L 57.965301 10L 105.965301 166L 57.965301 322Z"></path></g></g></g><g id="g-root-2.line_sy_qrjsb3ri905d-fill" data-item-order="-160186" transform="translate(333.42901611328125, 255)"></g><g id="g-root-2.line_1_sy_qrjsb3ri905e-fill" data-item-order="-160182" transform="translate(340.82159423828125, 279)"></g><g id="g-root-2.line_2_sy_hvws27ri90y3-fill" data-item-order="-160178" transform="translate(348.21417236328125, 303)"></g><g id="g-root-2.line_3_sy_hvws27ri90y4-fill" data-item-order="-160174" transform="translate(355.60675048828125, 327)"></g><g id="g-root-2.line_4_sy_hvws27ri90y5-fill" data-item-order="-160170" transform="translate(362.99932861328125, 351)"></g><g id="g-root-2.line_5_sy_dg39xrri91qe-fill" data-item-order="-160166" transform="translate(355.60919189453125, 375)"></g><g id="g-root-2.line_6_sy_dg39xrri91qf-fill" data-item-order="-160162" transform="translate(348.21905517578125, 399)"></g><g id="g-root-2.line_7_sy_dg39xrri91qg-fill" data-item-order="-160158" transform="translate(340.82891845703125, 423)"></g><g id="g-root-2.line_8_sy_dg39xrri91qh-fill" data-item-order="-160154" transform="translate(333.43878173828125, 447)"></g><g id="g-root-2.cu_sy_90w8wfri8zcy-fill" data-item-order="-160153" transform="translate(266.99981689453125, 195)"><g id="2.cu_sy_90w8wfri8zcy-fill" stroke="none" fill="#e6f9ff"><g><path d="M 57.965301 322L 45.965301 322L 10 205.113007L 21.965301 166L 10 126.886993L 45.965301 10L 57.965301 10L 105.965301 166L 57.965301 322Z"></path></g></g></g><g id="g-root-1.line_sy_90w8wfri8zcz-fill" data-item-order="-160146" transform="translate(249.47830200195312, 255.0001220703125)"></g><g id="g-root-1.line_1_sy_598njri905o-fill" data-item-order="-160142" transform="translate(242.09844970703125, 231.0001220703125)"></g><g id="g-root-1.line_2_sy_598njri905p-fill" data-item-order="-160138" transform="translate(256.8581848144531, 279.0001220703125)"></g><g id="g-root-1.line_3_sy_1uqjsi7ri90qu-fill" data-item-order="-160134" transform="translate(264.2380676269531, 303.0001220703125)"></g><g id="g-root-1.line_4_sy_1uqjsi7ri90qv-fill" data-item-order="-160130" transform="translate(271.6179504394531, 327.0001220703125)"></g><g id="g-root-1.line_5_sy_1qaqadrri91j4-fill" data-item-order="-160126" transform="translate(278.9978332519531, 351.0001220703125)"></g><g id="g-root-1.line_6_sy_1qaqadrri91j5-fill" data-item-order="-160122" transform="translate(271.6120910644531, 375.0001220703125)"></g><g id="g-root-1.line_7_sy_1qaqadrri91j6-fill" data-item-order="-160118" transform="translate(264.2263488769531, 399.0001220703125)"></g><g id="g-root-1.line_8_sy_1hfpr7zri8z63-fill" data-item-order="-160114" transform="translate(256.8406066894531, 423.0001220703125)"></g><g id="g-root-1.line_9_sy_1hfpr7zri8z64-fill" data-item-order="-160110" transform="translate(249.45486450195312, 447.0001220703125)"></g><g id="g-root-1.line_10_sy_1hfpr7zri8z65-fill" data-item-order="-160106" transform="translate(242.06915283203125, 471.0001220703125)"></g><g id="g-root-1.cu_sy_1czw93jri8zye-fill" data-item-order="-160105" transform="translate(170.99981689453125, 195.0001220703125)"><g id="1.cu_sy_1czw93jri8zye-fill" stroke="none" fill="#e6efff"><g><path d="M 70 322L 58 322L 10 166L 57.999984 10L 69.999984 10L 117.999984 166L 70 322Z"></path></g></g></g><g id="g-root-0.line_sy_14498unri90r3-fill" data-item-order="-160098" transform="translate(147.000244140625, 255.00006103515625)"></g><g id="g-root-0.line_1_sy_18k2qz3ri90qo-fill" data-item-order="-160094" transform="translate(158.99981689453125, 231.00006103515625)"></g><g id="g-root-0.line_2_sy_18k2qz3ri90qp-fill" data-item-order="-160090" transform="translate(147.00003051757812, 207.00006103515625)"></g><g id="g-root-0.line_3_sy_zofqq7ri91je-fill" data-item-order="-160086" transform="translate(159, 279)"></g><g id="g-root-0.line_4_sy_zofqq7ri91jf-fill" data-item-order="-160082" transform="translate(147.00006103515625, 303)"></g><g id="g-root-0.line_5_sy_zofqq7ri91jg-fill" data-item-order="-160078" transform="translate(158.9998779296875, 327.00006103515625)"></g><g id="g-root-0.line_6_sy_v98povri8z5x-fill" data-item-order="-160074" transform="translate(147, 351.00006103515625)"></g><g id="g-root-0.line_7_sy_v98povri8z5y-fill" data-item-order="-160070" transform="translate(158.9998779296875, 375.00006103515625)"></g><g id="g-root-0.line_8_sy_v98povri8z5z-fill" data-item-order="-160066" transform="translate(147.00006103515625, 399)"></g><g id="g-root-0.line_9_sy_qtf7kfri8zy8-fill" data-item-order="-160062" transform="translate(159, 423)"></g><g id="g-root-0.line_10_sy_qtf7kfri8zy9-fill" data-item-order="-160058" transform="translate(147.000244140625, 447)"></g><g id="g-root-0.line_11_sy_qtf7kfri8zya-fill" data-item-order="-160054" transform="translate(158.99981689453125, 471)"></g><g id="g-root-0.line_12_sy_hxs7bjri90qz-fill" data-item-order="-160050" transform="translate(146.32421875, 495)"></g><g id="g-root-tx_pixelcon_1hhl6hbri8yyo-fill" data-item-order="0" transform="translate(171, 123)"><g id="tx_pixelcon_1hhl6hbri8yyo-fill" stroke="none" fill="#484848"><g><text style="font: 20px Roboto, sans-serif; white-space: pre;" font-size="20px" font-family="Roboto, sans-serif"><tspan x="42.68" y="34" dominant-baseline="ideographic">Pixel </tspan><tspan x="14" y="58" dominant-baseline="ideographic">Conversion</tspan></text></g></g></g><g id="g-root-tx_shapefor_1qclpn3ri90jy-fill" data-item-order="0" transform="translate(345, 123)"><g id="tx_shapefor_1qclpn3ri90jy-fill" stroke="none" fill="#484848"><g><text style="font: 20px Roboto, sans-serif; white-space: pre;" font-size="20px" font-family="Roboto, sans-serif"><tspan x="30.21" y="34" dominant-baseline="ideographic">Shape </tspan><tspan x="12.37" y="58" dominant-baseline="ideographic">Formation</tspan></text></g></g></g><g id="g-root-tx_patternr_74nwvri8zyd-fill" data-item-order="0" transform="translate(417, 531)"><g id="tx_patternr_74nwvri8zyd-fill" stroke="none" fill="#484848"><g><text style="font: 20px Roboto, sans-serif; white-space: pre;" font-size="20px" font-family="Roboto, sans-serif"><tspan x="37.57" y="34" dominant-baseline="ideographic">Pattern </tspan><tspan x="17.14" y="58" dominant-baseline="ideographic">Recognition</tspan></text></g></g></g><g id="g-root-tx_predicte_18ly68fri8zre-fill" data-item-order="0" transform="translate(675, 339)"><g id="tx_predicte_18ly68fri8zre-fill" stroke="none" fill="#484848"><g><text style="font: 20px Roboto, sans-serif; white-space: pre;" font-size="20px" font-family="Roboto, sans-serif"><tspan x="12" y="34" dominant-baseline="ideographic">Predicted Digit</tspan></text></g></g></g><g id="g-root-tx_imagetod_1464o3zri90jn-fill" data-item-order="0" transform="translate(291, 39)"><g id="tx_imagetod_1464o3zri90jn-fill" stroke="none" fill="#484848"><g><text style="font: bold 20px Roboto, sans-serif; white-space: pre;" font-weight="bold" font-size="20px" font-family="Roboto, sans-serif"><tspan x="12.51" y="34" dominant-baseline="ideographic">Image to Digit Prediction</tspan></text></g></g></g><g id="g-root-tx_digitpro_dhyp73ri91j8-fill" data-item-order="0" transform="translate(489, 147)"><g id="tx_digitpro_dhyp73ri91j8-fill" stroke="none" fill="#484848"><g><text style="font: 20px Roboto, sans-serif; white-space: pre;" font-size="20px" font-family="Roboto, sans-serif"><tspan x="12" y="34" dominant-baseline="ideographic">Digit Probability</tspan></text></g></g></g><g id="g-root-tx_edgedete_1lws7inri91c7-fill" data-item-order="0" transform="translate(237, 531)"><g id="tx_edgedete_1lws7inri91c7-fill" stroke="none" fill="#484848"><g><text style="font: 20px Roboto, sans-serif; white-space: pre;" font-size="20px" font-family="Roboto, sans-serif"><tspan x="14.81" y="34" dominant-baseline="ideographic">Edge Detection</tspan></text></g></g></g><g id="g-root-tx_handwrit_18ly68fri8zrd-fill" data-item-order="0" transform="translate(15, 327)"><g id="tx_handwrit_18ly68fri8zrd-fill" stroke="none" fill="#484848"><g><text style="font: 20px Roboto, sans-serif; white-space: pre;" font-size="20px" font-family="Roboto, sans-serif"><tspan x="19.2" y="34" dominant-baseline="ideographic">Handwritten </tspan><tspan x="26.8" y="58" dominant-baseline="ideographic">Digit Image</tspan></text></g></g></g><g id="g-root-tf_dju4gfri90jo-stroke" data-item-order="-541872" transform="translate(-9, -9)"></g><g id="g-root-5.line_sy_1uood8vri90xz-stroke" data-item-order="-160258" transform="translate(607.616455078125, 327)"><g id="5.line_sy_1uood8vri90xz-stroke" fill="none" stroke-linecap="round" stroke-linejoin="round" stroke-miterlimit="4" stroke="#484848" stroke-width="2"><g><path d="M 10.00354 10L 53.00354 10"></path><path d="M 47.00354 16.5L 53.50354 10L 47.00354 3.5" stroke-dasharray="none"></path></g></g></g><g id="g-root-5.line_1_sy_1uood8vri90y0-stroke" data-item-order="-160254" transform="translate(614.9993286132812, 351)"><g id="5.line_1_sy_1uood8vri90y0-stroke" fill="none" stroke-linecap="round" stroke-linejoin="round" stroke-miterlimit="4" stroke="#484848" stroke-width="2"><g><path d="M 10.000671 10L 53.000671 10"></path><path d="M 47.000671 16.5L 53.500671 10L 47.000671 3.5" stroke-dasharray="none"></path></g></g></g><g id="g-root-5.line_2_sy_1q8uv4fri91q9-stroke" data-item-order="-160250" transform="translate(607.6165161132812, 375)"><g id="5.line_2_sy_1q8uv4fri91q9-stroke" fill="none" stroke-linecap="round" stroke-linejoin="round" stroke-miterlimit="4" stroke="#484848" stroke-width="2"><g><path d="M 10.003479 10L 53.003479 10"></path><path d="M 47.003479 16.5L 53.503479 10L 47.003479 3.5" stroke-dasharray="none"></path></g></g></g><g id="g-root-5.cu_sy_1q8uv4fri91qa-stroke" data-item-order="-160249" transform="translate(518.999755859375, 195)"><g id="5.cu_sy_1q8uv4fri91qa-stroke" fill="none" stroke-linecap="round" stroke-linejoin="round" stroke-miterlimit="4" stroke="#e3cd09" stroke-width="2"><g><path d="M 45.965332 322L 57.965332 322L 105.965271 166L 57.965271 10L 45.965271 10M 45.965332 322L 93.965271 166.028595L 45.965271 10M 45.965332 322L 10 205.112701L 21.965271 166L 10 126.887299L 45.965271 10"></path></g></g></g><g id="g-root-4.line_sy_1hdubynri8zd7-stroke" data-item-order="-160242" transform="translate(516.233154296875, 303)"><g id="4.line_sy_1hdubynri8zd7-stroke" fill="none" stroke-linecap="round" stroke-linejoin="round" stroke-miterlimit="4" stroke="#484848" stroke-width="2"><g><path d="M 9.996826 10L 52.996826 10"></path><path d="M 46.996826 16.5L 53.496826 10L 46.996826 3.5" stroke-dasharray="none"></path></g></g></g><g id="g-root-4.line_1_sy_1hdubynri8zd8-stroke" data-item-order="-160238" transform="translate(523.615966796875, 327)"><g id="4.line_1_sy_1hdubynri8zd8-stroke" fill="none" stroke-linecap="round" stroke-linejoin="round" stroke-miterlimit="4" stroke="#484848" stroke-width="2"><g><path d="M 10.004028 10L 53.004028 10"></path><path d="M 47.004028 16.5L 53.504028 10L 47.004028 3.5" stroke-dasharray="none"></path></g></g></g><g id="g-root-4.line_2_sy_1cy0tu7ri905h-stroke" data-item-order="-160234" transform="translate(530.9993286132812, 351)"><g id="4.line_2_sy_1cy0tu7ri905h-stroke" fill="none" stroke-linecap="round" stroke-linejoin="round" stroke-miterlimit="4" stroke="#484848" stroke-width="2"><g><path d="M 10.000671 10L 53.000671 10"></path><path d="M 47.000671 16.5L 53.500671 10L 47.000671 3.5" stroke-dasharray="none"></path></g></g></g><g id="g-root-4.line_3_sy_1cy0tu7ri905i-stroke" data-item-order="-160230" transform="translate(523.6194458007812, 375)"><g id="4.line_3_sy_1cy0tu7ri905i-stroke" fill="none" stroke-linecap="round" stroke-linejoin="round" stroke-miterlimit="4" stroke="#484848" stroke-width="2"><g><path d="M 10.000549 10L 53.000549 10"></path><path d="M 47.000549 16.5L 53.500549 10L 47.000549 3.5" stroke-dasharray="none"></path></g></g></g><g id="g-root-4.line_4_sy_1cy0tu7ri905j-stroke" data-item-order="-160226" transform="translate(516.239013671875, 399)"><g id="4.line_4_sy_1cy0tu7ri905j-stroke" fill="none" stroke-linecap="round" stroke-linejoin="round" stroke-miterlimit="4" stroke="#484848" stroke-width="2"><g><path d="M 10.000977 10L 53.000977 10"></path><path d="M 47.000977 16.5L 53.500977 10L 47.000977 3.5" stroke-dasharray="none"></path></g></g></g><g id="g-root-4.cu_sy_18i7bprri90xs-stroke" data-item-order="-160225" transform="translate(434.999755859375, 195)"><g id="4.cu_sy_18i7bprri90xs-stroke" fill="none" stroke-linecap="round" stroke-linejoin="round" stroke-miterlimit="4" stroke="#93c131" stroke-width="2"><g><path d="M 45.965302 322L 57.965302 322L 105.965302 166L 57.965302 10L 45.965302 10M 45.965302 322L 93.965302 166.028595L 45.965302 10M 45.965302 322L 10 205.112701L 21.965302 166L 10 126.887299L 45.965302 10"></path></g></g></g><g id="g-root-3.line_sy_18i7bprri90xt-stroke" data-item-order="-160218" transform="translate(424.8182373046875, 279)"><g id="3.line_sy_18i7bprri90xt-stroke" fill="none" stroke-linecap="round" stroke-linejoin="round" stroke-miterlimit="4" stroke="#484848" stroke-width="2"><g><path d="M 10.00177 10L 53.00177 10"></path><path d="M 47.00177 16.5L 53.50177 10L 47.00177 3.5" stroke-dasharray="none"></path></g></g></g><g id="g-root-3.line_1_sy_zmkbgvri91qi-stroke" data-item-order="-160214" transform="translate(432.21173095703125, 303)"><g id="3.line_1_sy_zmkbgvri91qi-stroke" fill="none" stroke-linecap="round" stroke-linejoin="round" stroke-miterlimit="4" stroke="#484848" stroke-width="2"><g><path d="M 9.99823 10L 52.99823 10"></path><path d="M 46.99823 16.5L 53.49823 10L 46.99823 3.5" stroke-dasharray="none"></path></g></g></g><g id="g-root-3.line_2_sy_zmkbgvri91qj-stroke" data-item-order="-160210" transform="translate(439.6053466796875, 327)"><g id="3.line_2_sy_zmkbgvri91qj-stroke" fill="none" stroke-linecap="round" stroke-linejoin="round" stroke-miterlimit="4" stroke="#484848" stroke-width="2"><g><path d="M 10.004639 10L 53.004639 10"></path><path d="M 47.004639 16.5L 53.504639 10L 47.004639 3.5" stroke-dasharray="none"></path></g></g></g><g id="g-root-3.line_3_sy_zmkbgvri91qk-stroke" data-item-order="-160206" transform="translate(446.9993896484375, 351)"><g id="3.line_3_sy_zmkbgvri91qk-stroke" fill="none" stroke-linecap="round" stroke-linejoin="round" stroke-miterlimit="4" stroke="#484848" stroke-width="2"><g><path d="M 10.00061 10L 53.00061 10"></path><path d="M 47.00061 16.5L 53.50061 10L 47.00061 3.5" stroke-dasharray="none"></path></g></g></g><g id="g-root-3.line_4_sy_v7dafjri8zd1-stroke" data-item-order="-160202" transform="translate(439.6092529296875, 375)"><g id="3.line_4_sy_v7dafjri8zd1-stroke" fill="none" stroke-linecap="round" stroke-linejoin="round" stroke-miterlimit="4" stroke="#484848" stroke-width="2"><g><path d="M 10.000732 10L 53.000732 10"></path><path d="M 47.000732 16.5L 53.500732 10L 47.000732 3.5" stroke-dasharray="none"></path></g></g></g><g id="g-root-3.line_5_sy_v7dafjri8zd2-stroke" data-item-order="-160198" transform="translate(432.2191162109375, 399)"><g id="3.line_5_sy_v7dafjri8zd2-stroke" fill="none" stroke-linecap="round" stroke-linejoin="round" stroke-miterlimit="4" stroke="#484848" stroke-width="2"><g><path d="M 10.000854 10L 53.000854 10"></path><path d="M 47.000854 16.5L 53.500854 10L 47.000854 3.5" stroke-dasharray="none"></path></g></g></g><g id="g-root-3.line_6_sy_v7dafjri8zd3-stroke" data-item-order="-160194" transform="translate(424.8284912109375, 423)"><g id="3.line_6_sy_v7dafjri8zd3-stroke" fill="none" stroke-linecap="round" stroke-linejoin="round" stroke-miterlimit="4" stroke="#484848" stroke-width="2"><g><path d="M 10.001465 10L 53.001465 10"></path><path d="M 47.001465 16.5L 53.501465 10L 47.001465 3.5" stroke-dasharray="none"></path></g></g></g><g id="g-root-3.cu_sy_qrjsb3ri905c-stroke" data-item-order="-160193" transform="translate(350.9998779296875, 195)"><g id="3.cu_sy_qrjsb3ri905c-stroke" fill="none" stroke-linecap="round" stroke-linejoin="round" stroke-miterlimit="4" stroke="#3bc482" stroke-width="2"><g><path d="M 45.965301 322L 57.965301 322L 105.965301 166L 57.965301 10L 45.965301 10M 45.965301 322L 93.965301 166.028595L 45.965301 10M 45.965301 322L 10 205.112701L 21.965301 166L 10 126.887299L 45.965301 10"></path></g></g></g><g id="g-root-2.line_sy_qrjsb3ri905d-stroke" data-item-order="-160186" transform="translate(333.42901611328125, 255)"><g id="2.line_sy_qrjsb3ri905d-stroke" fill="none" stroke-linecap="round" stroke-linejoin="round" stroke-miterlimit="4" stroke="#484848" stroke-width="2"><g><path d="M 10.000977 10L 53.000977 10"></path><path d="M 47.000977 16.5L 53.500977 10L 47.000977 3.5" stroke-dasharray="none"></path></g></g></g><g id="g-root-2.line_1_sy_qrjsb3ri905e-stroke" data-item-order="-160182" transform="translate(340.82159423828125, 279)"><g id="2.line_1_sy_qrjsb3ri905e-stroke" fill="none" stroke-linecap="round" stroke-linejoin="round" stroke-miterlimit="4" stroke="#484848" stroke-width="2"><g><path d="M 9.998413 10L 52.998413 10"></path><path d="M 46.998413 16.5L 53.498413 10L 46.998413 3.5" stroke-dasharray="none"></path></g></g></g><g id="g-root-2.line_2_sy_hvws27ri90y3-stroke" data-item-order="-160178" transform="translate(348.21417236328125, 303)"><g id="2.line_2_sy_hvws27ri90y3-stroke" fill="none" stroke-linecap="round" stroke-linejoin="round" stroke-miterlimit="4" stroke="#484848" stroke-width="2"><g><path d="M 9.995819 10L 52.995819 10"></path><path d="M 46.995819 16.5L 53.495819 10L 46.995819 3.5" stroke-dasharray="none"></path></g></g></g><g id="g-root-2.line_3_sy_hvws27ri90y4-stroke" data-item-order="-160174" transform="translate(355.60675048828125, 327)"><g id="2.line_3_sy_hvws27ri90y4-stroke" fill="none" stroke-linecap="round" stroke-linejoin="round" stroke-miterlimit="4" stroke="#484848" stroke-width="2"><g><path d="M 10.003235 10L 53.003235 10"></path><path d="M 47.003235 16.5L 53.503235 10L 47.003235 3.5" stroke-dasharray="none"></path></g></g></g><g id="g-root-2.line_4_sy_hvws27ri90y5-stroke" data-item-order="-160170" transform="translate(362.99932861328125, 351)"><g id="2.line_4_sy_hvws27ri90y5-stroke" fill="none" stroke-linecap="round" stroke-linejoin="round" stroke-miterlimit="4" stroke="#484848" stroke-width="2"><g><path d="M 10.000671 10L 53.000671 10"></path><path d="M 47.000671 16.5L 53.500671 10L 47.000671 3.5" stroke-dasharray="none"></path></g></g></g><g id="g-root-2.line_5_sy_dg39xrri91qe-stroke" data-item-order="-160166" transform="translate(355.60919189453125, 375)"><g id="2.line_5_sy_dg39xrri91qe-stroke" fill="none" stroke-linecap="round" stroke-linejoin="round" stroke-miterlimit="4" stroke="#484848" stroke-width="2"><g><path d="M 10.000793 10L 53.000793 10"></path><path d="M 47.000793 16.5L 53.500793 10L 47.000793 3.5" stroke-dasharray="none"></path></g></g></g><g id="g-root-2.line_6_sy_dg39xrri91qf-stroke" data-item-order="-160162" transform="translate(348.21905517578125, 399)"><g id="2.line_6_sy_dg39xrri91qf-stroke" fill="none" stroke-linecap="round" stroke-linejoin="round" stroke-miterlimit="4" stroke="#484848" stroke-width="2"><g><path d="M 10.000946 10L 53.000946 10"></path><path d="M 47.000946 16.5L 53.500946 10L 47.000946 3.5" stroke-dasharray="none"></path></g></g></g><g id="g-root-2.line_7_sy_dg39xrri91qg-stroke" data-item-order="-160158" transform="translate(340.82891845703125, 423)"><g id="2.line_7_sy_dg39xrri91qg-stroke" fill="none" stroke-linecap="round" stroke-linejoin="round" stroke-miterlimit="4" stroke="#484848" stroke-width="2"><g><path d="M 10.001068 10L 53.001068 10"></path><path d="M 47.001068 16.5L 53.501068 10L 47.001068 3.5" stroke-dasharray="none"></path></g></g></g><g id="g-root-2.line_8_sy_dg39xrri91qh-stroke" data-item-order="-160154" transform="translate(333.43878173828125, 447)"><g id="2.line_8_sy_dg39xrri91qh-stroke" fill="none" stroke-linecap="round" stroke-linejoin="round" stroke-miterlimit="4" stroke="#484848" stroke-width="2"><g><path d="M 10.001221 10L 53.001221 10"></path><path d="M 47.001221 16.5L 53.501221 10L 47.001221 3.5" stroke-dasharray="none"></path></g></g></g><g id="g-root-2.cu_sy_90w8wfri8zcy-stroke" data-item-order="-160153" transform="translate(266.99981689453125, 195)"><g id="2.cu_sy_90w8wfri8zcy-stroke" fill="none" stroke-linecap="round" stroke-linejoin="round" stroke-miterlimit="4" stroke="#17b0e3" stroke-width="2"><g><path d="M 45.965301 322L 57.965301 322L 105.965301 166L 57.965301 10L 45.965301 10M 45.965301 322L 93.965301 166.028595L 45.965301 10M 45.965301 322L 10 205.112701L 21.965301 166L 10 126.887299L 45.965301 10"></path></g></g></g><g id="g-root-1.line_sy_90w8wfri8zcz-stroke" data-item-order="-160146" transform="translate(249.47830200195312, 255.0001220703125)"><g id="1.line_sy_90w8wfri8zcz-stroke" fill="none" stroke-linecap="round" stroke-linejoin="round" stroke-miterlimit="4" stroke="#484848" stroke-width="2"><g><path d="M 10.001709 9.999878L 53.001709 9.999878"></path><path d="M 47.001709 16.499878L 53.501709 9.999878L 47.001709 3.499878" stroke-dasharray="none"></path></g></g></g><g id="g-root-1.line_1_sy_598njri905o-stroke" data-item-order="-160142" transform="translate(242.09844970703125, 231.0001220703125)"><g id="1.line_1_sy_598njri905o-stroke" fill="none" stroke-linecap="round" stroke-linejoin="round" stroke-miterlimit="4" stroke="#484848" stroke-width="2"><g><path d="M 10.001556 9.999878L 53.001556 9.999878"></path><path d="M 47.001556 16.499878L 53.501556 9.999878L 47.001556 3.499878" stroke-dasharray="none"></path></g></g></g><g id="g-root-1.line_2_sy_598njri905p-stroke" data-item-order="-160138" transform="translate(256.8581848144531, 279.0001220703125)"><g id="1.line_2_sy_598njri905p-stroke" fill="none" stroke-linecap="round" stroke-linejoin="round" stroke-miterlimit="4" stroke="#484848" stroke-width="2"><g><path d="M 10.001801 9.999878L 53.001801 9.999878"></path><path d="M 47.001801 16.499878L 53.501801 9.999878L 47.001801 3.499878" stroke-dasharray="none"></path></g></g></g><g id="g-root-1.line_3_sy_1uqjsi7ri90qu-stroke" data-item-order="-160134" transform="translate(264.2380676269531, 303.0001220703125)"><g id="1.line_3_sy_1uqjsi7ri90qu-stroke" fill="none" stroke-linecap="round" stroke-linejoin="round" stroke-miterlimit="4" stroke="#484848" stroke-width="2"><g><path d="M 10.001923 9.999878L 53.001923 9.999878"></path><path d="M 47.001923 16.499878L 53.501923 9.999878L 47.001923 3.499878" stroke-dasharray="none"></path></g></g></g><g id="g-root-1.line_4_sy_1uqjsi7ri90qv-stroke" data-item-order="-160130" transform="translate(271.6179504394531, 327.0001220703125)"><g id="1.line_4_sy_1uqjsi7ri90qv-stroke" fill="none" stroke-linecap="round" stroke-linejoin="round" stroke-miterlimit="4" stroke="#484848" stroke-width="2"><g><path d="M 10.002045 9.999878L 53.002045 9.999878"></path><path d="M 47.002045 16.499878L 53.502045 9.999878L 47.002045 3.499878" stroke-dasharray="none"></path></g></g></g><g id="g-root-1.line_5_sy_1qaqadrri91j4-stroke" data-item-order="-160126" transform="translate(278.9978332519531, 351.0001220703125)"><g id="1.line_5_sy_1qaqadrri91j4-stroke" fill="none" stroke-linecap="round" stroke-linejoin="round" stroke-miterlimit="4" stroke="#484848" stroke-width="2"><g><path d="M 10.002167 9.999878L 53.002167 9.999878"></path><path d="M 47.002167 16.499878L 53.502167 9.999878L 47.002167 3.499878" stroke-dasharray="none"></path></g></g></g><g id="g-root-1.line_6_sy_1qaqadrri91j5-stroke" data-item-order="-160122" transform="translate(271.6120910644531, 375.0001220703125)"><g id="1.line_6_sy_1qaqadrri91j5-stroke" fill="none" stroke-linecap="round" stroke-linejoin="round" stroke-miterlimit="4" stroke="#484848" stroke-width="2"><g><path d="M 9.997894 9.999878L 52.997894 9.999878"></path><path d="M 46.997894 16.499878L 53.497894 9.999878L 46.997894 3.499878" stroke-dasharray="none"></path></g></g></g><g id="g-root-1.line_7_sy_1qaqadrri91j6-stroke" data-item-order="-160118" transform="translate(264.2263488769531, 399.0001220703125)"><g id="1.line_7_sy_1qaqadrri91j6-stroke" fill="none" stroke-linecap="round" stroke-linejoin="round" stroke-miterlimit="4" stroke="#484848" stroke-width="2"><g><path d="M 10.003662 9.999878L 53.003662 9.999878"></path><path d="M 47.003662 16.499878L 53.503662 9.999878L 47.003662 3.499878" stroke-dasharray="none"></path></g></g></g><g id="g-root-1.line_8_sy_1hfpr7zri8z63-stroke" data-item-order="-160114" transform="translate(256.8406066894531, 423.0001220703125)"><g id="1.line_8_sy_1hfpr7zri8z63-stroke" fill="none" stroke-linecap="round" stroke-linejoin="round" stroke-miterlimit="4" stroke="#484848" stroke-width="2"><g><path d="M 9.99939 9.999878L 52.99939 9.999878"></path><path d="M 46.99939 16.499878L 53.49939 9.999878L 46.99939 3.499878" stroke-dasharray="none"></path></g></g></g><g id="g-root-1.line_9_sy_1hfpr7zri8z64-stroke" data-item-order="-160110" transform="translate(249.45486450195312, 447.0001220703125)"><g id="1.line_9_sy_1hfpr7zri8z64-stroke" fill="none" stroke-linecap="round" stroke-linejoin="round" stroke-miterlimit="4" stroke="#484848" stroke-width="2"><g><path d="M 9.995148 9.999878L 52.995148 9.999878"></path><path d="M 46.995148 16.499878L 53.495148 9.999878L 46.995148 3.499878" stroke-dasharray="none"></path></g></g></g><g id="g-root-1.line_10_sy_1hfpr7zri8z65-stroke" data-item-order="-160106" transform="translate(242.06915283203125, 471.0001220703125)"><g id="1.line_10_sy_1hfpr7zri8z65-stroke" fill="none" stroke-linecap="round" stroke-linejoin="round" stroke-miterlimit="4" stroke="#484848" stroke-width="2"><g><path d="M 10.000854 9.999878L 53.000854 9.999878"></path><path d="M 47.000854 16.499878L 53.500854 9.999878L 47.000854 3.499878" stroke-dasharray="none"></path></g></g></g><g id="g-root-1.cu_sy_1czw93jri8zye-stroke" data-item-order="-160105" transform="translate(170.99981689453125, 195.0001220703125)"><g id="1.cu_sy_1czw93jri8zye-stroke" fill="none" stroke-linecap="round" stroke-linejoin="round" stroke-miterlimit="4" stroke="#4682e3" stroke-width="2"><g><path d="M 58 322L 70 322L 117.999984 166L 69.999984 10L 57.999984 10M 58 322L 10 166L 57.999984 10M 58 322L 105.999984 166L 57.999984 10"></path></g></g></g><g id="g-root-0.line_sy_14498unri90r3-stroke" data-item-order="-160098" transform="translate(147.000244140625, 255.00006103515625)"><g id="0.line_sy_14498unri90r3-stroke" fill="none" stroke-linecap="round" stroke-linejoin="round" stroke-miterlimit="4" stroke="#484848" stroke-width="2"><g><path d="M 9.999756 9.999939L 71.399756 9.999939"></path><path d="M 65.399756 16.499939L 71.899756 9.999939L 65.399756 3.499939" stroke-dasharray="none"></path></g></g></g><g id="g-root-0.line_1_sy_18k2qz3ri90qo-stroke" data-item-order="-160094" transform="translate(158.99981689453125, 231.00006103515625)"><g id="0.line_1_sy_18k2qz3ri90qo-stroke" fill="none" stroke-linecap="round" stroke-linejoin="round" stroke-miterlimit="4" stroke="#484848" stroke-width="2"><g><path d="M 10.000183 9.999939L 52.110183 9.999939"></path><path d="M 46.100183 16.499939L 52.600183 9.999939L 46.100183 3.499939" stroke-dasharray="none"></path></g></g></g><g id="g-root-0.line_2_sy_18k2qz3ri90qp-stroke" data-item-order="-160090" transform="translate(147.00003051757812, 207.00006103515625)"><g id="0.line_2_sy_18k2qz3ri90qp-stroke" fill="none" stroke-linecap="round" stroke-linejoin="round" stroke-miterlimit="4" stroke="#484848" stroke-width="2"><g><path d="M 9.999969 9.999939L 56.699969 9.999939"></path><path d="M 50.699969 16.499939L 57.199969 9.999939L 50.699969 3.499939" stroke-dasharray="none"></path></g></g></g><g id="g-root-0.line_3_sy_zofqq7ri91je-stroke" data-item-order="-160086" transform="translate(159, 279)"><g id="0.line_3_sy_zofqq7ri91je-stroke" fill="none" stroke-linecap="round" stroke-linejoin="round" stroke-miterlimit="4" stroke="#484848" stroke-width="2"><g><path d="M 10 10L 66.79 10"></path><path d="M 60.8 16.5L 67.3 10L 60.8 3.5" stroke-dasharray="none"></path></g></g></g><g id="g-root-0.line_4_sy_zofqq7ri91jf-stroke" data-item-order="-160082" transform="translate(147.00006103515625, 303)"><g id="0.line_4_sy_zofqq7ri91jf-stroke" fill="none" stroke-linecap="round" stroke-linejoin="round" stroke-miterlimit="4" stroke="#484848" stroke-width="2"><g><path d="M 9.999939 10L 86.209939 10"></path><path d="M 80.199939 16.5L 86.699939 10L 80.199939 3.5" stroke-dasharray="none"></path></g></g></g><g id="g-root-0.line_5_sy_zofqq7ri91jg-stroke" data-item-order="-160078" transform="translate(158.9998779296875, 327.00006103515625)"><g id="0.line_5_sy_zofqq7ri91jg-stroke" fill="none" stroke-linecap="round" stroke-linejoin="round" stroke-miterlimit="4" stroke="#484848" stroke-width="2"><g><path d="M 10.000122 9.999939L 81.610122 9.999939"></path><path d="M 75.600122 16.499939L 82.100122 9.999939L 75.600122 3.499939" stroke-dasharray="none"></path></g></g></g><g id="g-root-0.line_6_sy_v98povri8z5x-stroke" data-item-order="-160074" transform="translate(147, 351.00006103515625)"><g id="0.line_6_sy_v98povri8z5x-stroke" fill="none" stroke-linecap="round" stroke-linejoin="round" stroke-miterlimit="4" stroke="#484848" stroke-width="2"><g><path d="M 10 9.999939L 101 9.999939"></path><path d="M 95 16.499939L 101.5 9.999939L 95 3.499939" stroke-dasharray="none"></path></g></g></g><g id="g-root-0.line_7_sy_v98povri8z5y-stroke" data-item-order="-160070" transform="translate(158.9998779296875, 375.00006103515625)"><g id="0.line_7_sy_v98povri8z5y-stroke" fill="none" stroke-linecap="round" stroke-linejoin="round" stroke-miterlimit="4" stroke="#484848" stroke-width="2"><g><path d="M 10.000122 9.999939L 81.610122 9.999939"></path><path d="M 75.600122 16.499939L 82.100122 9.999939L 75.600122 3.499939" stroke-dasharray="none"></path></g></g></g><g id="g-root-0.line_8_sy_v98povri8z5z-stroke" data-item-order="-160066" transform="translate(147.00006103515625, 399)"><g id="0.line_8_sy_v98povri8z5z-stroke" fill="none" stroke-linecap="round" stroke-linejoin="round" stroke-miterlimit="4" stroke="#484848" stroke-width="2"><g><path d="M 9.999939 10L 86.209939 10"></path><path d="M 80.199939 16.5L 86.699939 10L 80.199939 3.5" stroke-dasharray="none"></path></g></g></g><g id="g-root-0.line_9_sy_qtf7kfri8zy8-stroke" data-item-order="-160062" transform="translate(159, 423)"><g id="0.line_9_sy_qtf7kfri8zy8-stroke" fill="none" stroke-linecap="round" stroke-linejoin="round" stroke-miterlimit="4" stroke="#484848" stroke-width="2"><g><path d="M 10 10L 66.79 10"></path><path d="M 60.8 16.5L 67.3 10L 60.8 3.5" stroke-dasharray="none"></path></g></g></g><g id="g-root-0.line_10_sy_qtf7kfri8zy9-stroke" data-item-order="-160058" transform="translate(147.000244140625, 447)"><g id="0.line_10_sy_qtf7kfri8zy9-stroke" fill="none" stroke-linecap="round" stroke-linejoin="round" stroke-miterlimit="4" stroke="#484848" stroke-width="2"><g><path d="M 9.999756 10L 71.399756 10"></path><path d="M 65.399756 16.5L 71.899756 10L 65.399756 3.5" stroke-dasharray="none"></path></g></g></g><g id="g-root-0.line_11_sy_qtf7kfri8zya-stroke" data-item-order="-160054" transform="translate(158.99981689453125, 471)"><g id="0.line_11_sy_qtf7kfri8zya-stroke" fill="none" stroke-linecap="round" stroke-linejoin="round" stroke-miterlimit="4" stroke="#484848" stroke-width="2"><g><path d="M 10.000183 10L 52.110183 10"></path><path d="M 46.100183 16.5L 52.600183 10L 46.100183 3.5" stroke-dasharray="none"></path></g></g></g><g id="g-root-0.line_12_sy_hxs7bjri90qz-stroke" data-item-order="-160050" transform="translate(146.32421875, 495)"><g id="0.line_12_sy_hxs7bjri90qz-stroke" fill="none" stroke-linecap="round" stroke-linejoin="round" stroke-miterlimit="4" stroke="#484848" stroke-width="2"><g><path d="M 9.995789 10L 57.345789 10"></path><path d="M 51.295789 16.5L 57.795789 10L 51.295789 3.5" stroke-dasharray="none"></path></g></g></g><g id="g-root-tx_pixelcon_1hhl6hbri8yyo-stroke" data-item-order="0" transform="translate(171, 123)"></g><g id="g-root-tx_shapefor_1qclpn3ri90jy-stroke" data-item-order="0" transform="translate(345, 123)"></g><g id="g-root-tx_patternr_74nwvri8zyd-stroke" data-item-order="0" transform="translate(417, 531)"></g><g id="g-root-tx_predicte_18ly68fri8zre-stroke" data-item-order="0" transform="translate(675, 339)"></g><g id="g-root-tx_imagetod_1464o3zri90jn-stroke" data-item-order="0" transform="translate(291, 39)"></g><g id="g-root-tx_digitpro_dhyp73ri91j8-stroke" data-item-order="0" transform="translate(489, 147)"></g><g id="g-root-tx_edgedete_1lws7inri91c7-stroke" data-item-order="0" transform="translate(237, 531)"></g><g id="g-root-tx_handwrit_18ly68fri8zrd-stroke" data-item-order="0" transform="translate(15, 327)"></g></g></g></svg>